<?xml version="1.0" encoding="UTF-8"?>
<svg version="1.1" xmlns="http://www.w3.org/2000/svg" width="350" height="65">
<path d="M0 0 C5.94 0 11.88 0 18 0 C20.4375 7.4375 20.4375 7.4375 21.20092773 9.78295898 C22.1195296 13.15695204 22.1195296 13.15695204 24 16 C25.98 10.72 27.96 5.44 30 0 C35.94 0 41.88 0 48 0 C48.8402616 4.37347168 49.67773414 8.74730548 50.50854492 13.12255859 C50.79116223 14.60658094 51.07530473 16.09031377 51.36108398 17.57373047 C54.9545176 36.23944692 54.9545176 36.23944692 55 42 C54 43 54 43 50.18359375 43.09765625 C48.60153318 43.09098089 47.01948841 43.07901875 45.4375 43.0625 C44.63119141 43.05798828 43.82488281 43.05347656 42.99414062 43.04882812 C40.99606244 43.03700518 38.99802217 43.01906914 37 43 C36.01 35.575 36.01 35.575 35 28 C33.06651484 30.90022773 32.07299318 33.35236187 30.9375 36.625 C29.10462777 41.89537223 29.10462777 41.89537223 28 43 C26.31391034 43.07205511 24.62499341 43.08386068 22.9375 43.0625 C22.01839844 43.05347656 21.09929687 43.04445312 20.15234375 43.03515625 C19.44207031 43.02355469 18.73179688 43.01195312 18 43 C17.37273892 41.45925192 16.7483099 39.91735077 16.125 38.375 C15.77695313 37.51648437 15.42890625 36.65796875 15.0703125 35.7734375 C13.95215808 32.87603007 12.96117482 29.95279831 12 27 C11.87882812 27.90363281 11.75765625 28.80726562 11.6328125 29.73828125 C11.46523437 30.91777344 11.29765625 32.09726562 11.125 33.3125 C10.88136719 35.07013672 10.88136719 35.07013672 10.6328125 36.86328125 C10 40 10 40 8 43 C5.04935852 43.2208564 2.31631769 43.28060989 -0.625 43.1875 C-1.42679687 43.17396484 -2.22859375 43.16042969 -3.0546875 43.14648438 C-5.03674378 43.11109051 -7.01845551 43.05728234 -9 43 C-7.88272712 37.19686263 -6.76163583 31.3944812 -5.63696289 25.59277344 C-5.25472031 23.61804298 -4.87353125 21.6431083 -4.4934082 19.66796875 C-3.9475798 16.8327923 -3.39799566 13.9983663 -2.84765625 11.1640625 C-2.6778273 10.27756012 -2.50799835 9.39105774 -2.33302307 8.47769165 C-2.17293259 7.65699188 -2.0128421 6.83629211 -1.84790039 5.99072266 C-1.70800186 5.26680328 -1.56810333 4.54288391 -1.42396545 3.79702759 C-1 2 -1 2 0 0 Z " fill="#103C99" transform="translate(90,16)"/>
<path d="M0 0 C0.74886475 0.00523682 1.49772949 0.01047363 2.26928711 0.01586914 C3.07817383 0.0190918 3.88706055 0.02231445 4.72045898 0.02563477 C5.5705957 0.03401367 6.42073242 0.04239258 7.29663086 0.05102539 C8.15063477 0.05553711 9.00463867 0.06004883 9.88452148 0.06469727 C12.00108749 0.07652166 14.11761771 0.0944577 16.23413086 0.11352539 C16.23413086 4.40352539 16.23413086 8.69352539 16.23413086 13.11352539 C18.87413086 13.44352539 21.51413086 13.77352539 24.23413086 14.11352539 C24.23413086 9.49352539 24.23413086 4.87352539 24.23413086 0.11352539 C30.17413086 0.11352539 36.11413086 0.11352539 42.23413086 0.11352539 C42.2587766 6.07665706 42.27696486 12.03975934 42.2890625 18.00292969 C42.29410364 20.03320837 42.30093643 22.06348341 42.30957031 24.09375 C42.32164553 27.00529886 42.3273612 29.91679989 42.33178711 32.82836914 C42.33694839 33.74190659 42.34210968 34.65544403 42.34742737 35.59666443 C42.34762254 37.76927966 42.29624891 39.94179835 42.23413086 42.11352539 C41.23413086 43.11352539 41.23413086 43.11352539 37.41772461 43.21118164 C35.83566404 43.20450628 34.25361927 43.19254415 32.67163086 43.17602539 C31.86532227 43.17151367 31.05901367 43.16700195 30.22827148 43.16235352 C28.2301933 43.15053057 26.23215303 43.13259453 24.23413086 43.11352539 C24.23413086 38.49352539 24.23413086 33.87352539 24.23413086 29.11352539 C21.59413086 29.11352539 18.95413086 29.11352539 16.23413086 29.11352539 C16.23413086 33.40352539 16.23413086 37.69352539 16.23413086 42.11352539 C12.92418373 43.76849895 9.24290085 43.21436874 5.60913086 43.17602539 C4.80733398 43.17151367 4.00553711 43.16700195 3.17944336 43.16235352 C1.1976408 43.15055707 -0.78412347 43.13262144 -2.76586914 43.11352539 C-2.79051488 37.15039373 -2.80870314 31.18729144 -2.82080078 25.22412109 C-2.82584192 23.19384241 -2.83267471 21.16356737 -2.84130859 19.13330078 C-2.85338381 16.22175192 -2.85909948 13.31025089 -2.86352539 10.39868164 C-2.86868668 9.4851442 -2.87384796 8.57160675 -2.87916565 7.63038635 C-2.87936082 5.45777112 -2.82798719 3.28525243 -2.76586914 1.11352539 C-1.76586914 0.11352539 -1.76586914 0.11352539 0 0 Z " fill="#123E9B" transform="translate(283.765869140625,15.886474609375)"/>
<path d="M0 0 C1.29349365 0.00523682 2.5869873 0.01047363 3.91967773 0.01586914 C4.9496714 0.01799156 4.9496714 0.01799156 6.00047302 0.02015686 C8.20144949 0.0257706 10.40232557 0.03832532 12.60327148 0.05102539 C14.09220231 0.05603863 15.58113473 0.06060184 17.07006836 0.06469727 C20.72700223 0.07574446 24.38387707 0.09301826 28.04077148 0.11352539 C28.04077148 4.40352539 28.04077148 8.69352539 28.04077148 13.11352539 C23.42077148 13.11352539 18.80077148 13.11352539 14.04077148 13.11352539 C14.04077148 13.77352539 14.04077148 14.43352539 14.04077148 15.11352539 C18.33077148 15.11352539 22.62077148 15.11352539 27.04077148 15.11352539 C27.04077148 19.07352539 27.04077148 23.03352539 27.04077148 27.11352539 C24.3961877 28.43581729 22.36315847 28.21029733 19.41577148 28.17602539 C18.41288086 28.16700195 17.40999023 28.15797852 16.37670898 28.14868164 C15.60584961 28.13708008 14.83499023 28.12547852 14.04077148 28.11352539 C14.04077148 28.77352539 14.04077148 29.43352539 14.04077148 30.11352539 C18.99077148 30.11352539 23.94077148 30.11352539 29.04077148 30.11352539 C29.04077148 34.07352539 29.04077148 38.03352539 29.04077148 42.11352539 C26.06717699 43.60032264 23.3777797 43.22465144 20.06420898 43.21118164 C19.37896149 43.20976669 18.69371399 43.20835175 17.98770142 43.20689392 C15.79701388 43.20129214 13.60642818 43.18873945 11.41577148 43.17602539 C9.93139796 43.17101062 8.44702283 43.16644767 6.96264648 43.16235352 C3.32198833 43.15132216 -0.31861016 43.13405638 -3.95922852 43.11352539 C-3.98387426 37.15039373 -4.00206251 31.18729144 -4.01416016 25.22412109 C-4.0192013 23.19384241 -4.02603408 21.16356737 -4.03466797 19.13330078 C-4.04674319 16.22175192 -4.05245886 13.31025089 -4.05688477 10.39868164 C-4.06204605 9.4851442 -4.06720734 8.57160675 -4.07252502 7.63038635 C-4.0727202 5.45777112 -4.02134656 3.28525243 -3.95922852 1.11352539 C-2.95922852 0.11352539 -2.95922852 0.11352539 0 0 Z " fill="#083799" transform="translate(51.959228515625,15.886474609375)"/>
<path d="M0 0 C3.10221372 2.3761637 4.78621809 3.71730851 5.4375 7.625 C5 10 5 10 3 13 C5.31 13.33 7.62 13.66 10 14 C10.6875 16.3125 10.6875 16.3125 11 19 C9.5625 20.8125 9.5625 20.8125 8 22 C8.66 22.66 9.32 23.32 10 24 C9.9375 25.875 9.9375 25.875 9 28 C7.33729713 29.33827304 5.67083819 30.67189785 4 32 C4 32.99 4 33.98 4 35 C-2.3331717 41.47469509 -12.71955423 47.0823881 -21.8125 47.25 C-26.98627098 47.17479984 -30.64872843 46.33849292 -34.4375 42.5703125 C-36.57926808 40.124316 -37.9674597 38.09762089 -39 35 C-39.99 35 -40.98 35 -42 35 C-41.67 34.01 -41.34 33.02 -41 32 C-40.34 32 -39.68 32 -39 32 C-38.95875 30.88625 -38.9175 29.7725 -38.875 28.625 C-37.76856448 19.94255461 -31.65308656 12.3670856 -25 7 C-17.35639923 1.58317654 -9.56226218 -2.70630062 0 0 Z M-24.484375 17.21875 C-27.23924297 20.45642989 -28.26660796 23.0017611 -28.125 27.25 C-28.08375 28.4875 -28.0425 29.725 -28 31 C-15.69100077 30.68141414 -3.67942632 26.63336873 6 19 C5.505 17.515 5.505 17.515 5 16 C4.34 16 3.68 16 3 16 C2.67 15.01 2.34 14.02 2 13 C1.32517578 13.67095703 1.32517578 13.67095703 0.63671875 14.35546875 C-7.32795826 21.84130746 -16.5699721 25.21715091 -27 28 C-24.60902158 25.41303974 -21.99059111 23.57118988 -19.0625 21.625 C-13.80700975 18.02345683 -13.80700975 18.02345683 -10 13 C-10.13149826 10.24875747 -10.13149826 10.24875747 -11 8 C-16.2756369 8 -20.98044872 13.74639063 -24.484375 17.21875 Z M4 24 C3.01 24.598125 2.02 25.19625 1 25.8125 C-7.2302173 30.45938213 -15.796071 32.17731181 -25 34 C-21.5220261 37.4779739 -17.40643932 38.13907992 -12.625 38.3125 C-7.19583767 38.1930768 -1.93639562 36.93639562 2 33 C0.72125 33.309375 -0.5575 33.61875 -1.875 33.9375 C-6.88758722 35.06114833 -11.88510956 35.59422581 -17 36 C-17 35.34 -17 34.68 -17 34 C-16.41734375 33.98582031 -15.8346875 33.97164062 -15.234375 33.95703125 C-7.87544341 33.52891731 -1.51975725 31.44784527 5 28 C5.33 27.34 5.66 26.68 6 26 C5.34 25.34 4.68 24.68 4 24 Z " fill="#22489B" transform="translate(223,13)"/>
<path d="M0 0 C0 5.28 0 10.56 0 16 C-0.99 16.495 -0.99 16.495 -2 17 C-2.59296875 16.69320312 -3.1859375 16.38640625 -3.796875 16.0703125 C-6.46013681 14.77645836 -8.30747011 14.797565 -11.25 14.875 C-12.58804687 14.90207031 -12.58804687 14.90207031 -13.953125 14.9296875 C-14.62859375 14.95289062 -15.3040625 14.97609375 -16 15 C-17.72635163 18.10035473 -17.72635163 18.10035473 -17.75 21.625 C-17.1515662 24.15600229 -17.1515662 24.15600229 -15 26 C-10.78822069 27.38937798 -8.2434009 26.67508711 -4.1875 25.0625 C-2.475625 24.381875 -0.76375 23.70125 1 23 C0.67 28.61 0.34 34.22 0 40 C-7.3505 43.15021429 -12.74631025 44.52924303 -20.49609375 42.2734375 C-27.62241076 39.31715759 -33.07562642 35.3586501 -36.30859375 28.17578125 C-37.94489391 23.02652031 -37.4624085 18.55042848 -35.9375 13.4375 C-31.75792518 6.02212531 -27.01589333 0.78850883 -18.6875 -1.6875 C-11.73741367 -2.49564957 -6.87779054 -1.96508301 0 0 Z " fill="#113D99" transform="translate(276,17)"/>
<path d="M0 0 C10.56 0 21.12 0 32 0 C32 3.96 32 7.92 32 12 C31 13 31 13 28.05859375 13.09765625 C26.26615234 13.08025391 26.26615234 13.08025391 24.4375 13.0625 C22.64119141 13.04896484 22.64119141 13.04896484 20.80859375 13.03515625 C19.88175781 13.02355469 18.95492188 13.01195312 18 13 C18 13.99 18 14.98 18 16 C22.29 16 26.58 16 31 16 C31.09765625 24.49609375 31.09765625 24.49609375 31 27 C30 28 30 28 27.27734375 28.09765625 C26.17519531 28.08605469 25.07304688 28.07445313 23.9375 28.0625 C22.83277344 28.05347656 21.72804688 28.04445313 20.58984375 28.03515625 C19.73519531 28.02355469 18.88054688 28.01195313 18 28 C18.01160156 28.99902344 18.02320312 29.99804688 18.03515625 31.02734375 C18.04417969 32.31769531 18.05320312 33.60804687 18.0625 34.9375 C18.07410156 36.22527344 18.08570312 37.51304688 18.09765625 38.83984375 C18 42 18 42 17 43 C11.39 43 5.78 43 0 43 C0 28.81 0 14.62 0 0 Z " fill="#113D9A" transform="translate(12,16)"/>
<path d="M0 0 C11.88 0 23.76 0 36 0 C36 4.95 36 9.9 36 15 C33.04335481 16.4783226 30.25770263 16.06032783 27 16 C27.00785522 17.17357056 27.00785522 17.17357056 27.01586914 18.37084961 C27.03657106 21.89305833 27.04963838 25.4152543 27.0625 28.9375 C27.07087891 30.16919922 27.07925781 31.40089844 27.08789062 32.66992188 C27.09272461 34.4246582 27.09272461 34.4246582 27.09765625 36.21484375 C27.10551147 37.84087524 27.10551147 37.84087524 27.11352539 39.49975586 C27 42 27 42 26 43 C23.13530675 43.07330331 20.30106326 43.09217831 17.4375 43.0625 C14.653125 43.041875 11.86875 43.02125 9 43 C9 34.09 9 25.18 9 16 C6.03 16 3.06 16 0 16 C0 10.72 0 5.44 0 0 Z " fill="#113D9A" transform="translate(145,16)"/>
<path d="M0 0 C4.79859093 3.67551646 4.79859093 3.67551646 5.359375 7.36328125 C4.60787722 12.87698779 0.04254684 16.51023236 -4 20 C-11.17378752 24.36316181 -18.69316219 26.91242304 -27 28 C-25.47272218 23.41816655 -21.80395056 22.27787763 -17.76171875 19.9140625 C-14.80990955 17.86825414 -12.95839334 16.00504061 -11 13 C-11 11.68 -11 10.36 -11 9 C-12.6260287 9.06000106 -14.25101549 9.1487885 -15.875 9.25 C-16.77992188 9.29640625 -17.68484375 9.3428125 -18.6171875 9.390625 C-21.17110544 9.75611148 -21.17110544 9.75611148 -22.3203125 12.046875 C-22.65675781 13.01367188 -22.65675781 13.01367188 -23 14 C-23.66 14 -24.32 14 -25 14 C-25.33 13.34 -25.66 12.68 -26 12 C-26.33 13.32 -26.66 14.64 -27 16 C-27.66 16 -28.32 16 -29 16 C-29 15.34 -29 14.68 -29 14 C-29.66 13.67 -30.32 13.34 -31 13 C-22.43472674 4.66230646 -12.56057992 -3.14014498 0 0 Z " fill="#063294" transform="translate(223,13)"/>
<path d="M0 0 C0.99 0.33 1.98 0.66 3 1 C2.67 13.87 2.34 26.74 2 40 C11.57 40 21.14 40 31 40 C30.67 39.34 30.34 38.68 30 38 C29.86584528 35.3276379 29.95681459 32.67749512 30 30 C30.66 30 31.32 30 32 30 C32 33.96 32 37.92 32 42 C29.02640551 43.48679725 26.33700821 43.11112605 23.0234375 43.09765625 C22.33819 43.0962413 21.6529425 43.09482635 20.94692993 43.09336853 C18.75624239 43.08776675 16.5656567 43.07521406 14.375 43.0625 C12.89062648 43.05748522 11.40625135 43.05292228 9.921875 43.04882812 C6.28121685 43.03779677 2.64061836 43.02053099 -1 43 C-1.02464574 37.03686834 -1.042834 31.07376605 -1.05493164 25.1105957 C-1.05997278 23.08031702 -1.06680557 21.05004198 -1.07543945 19.01977539 C-1.08751467 16.10822653 -1.09323034 13.1967255 -1.09765625 10.28515625 C-1.10281754 9.3716188 -1.10797882 8.45808136 -1.11329651 7.51686096 C-1.11349168 5.34424573 -1.06211805 3.17172704 -1 1 C-0.67 0.67 -0.34 0.34 0 0 Z " fill="#5065A2" transform="translate(49,16)"/>
<path d="M0 0 C2.31 0.33 4.62 0.66 7 1 C7.6875 3.3125 7.6875 3.3125 8 6 C6.5625 7.8125 6.5625 7.8125 5 9 C5.66 9.66 6.32 10.32 7 11 C6.90520365 13.84389063 6.06938802 14.92598611 4.125 17 C-2.57354104 21.28706627 -10.08056076 23.56803059 -18 24 C-18.66 23.67 -19.32 23.34 -20 23 C-20 22.34 -20 21.68 -20 21 C-18.91460937 20.74605469 -17.82921875 20.49210937 -16.7109375 20.23046875 C-15.26553276 19.88319618 -13.82022535 19.53551836 -12.375 19.1875 C-11.66214844 19.02185547 -10.94929687 18.85621094 -10.21484375 18.68554688 C-5.80283625 17.61290285 -2.00941682 16.20707645 2 14 C1.67 13.34 1.34 12.68 1 12 C-0.0725 12.61875 -1.145 13.2375 -2.25 13.875 C-2.89066406 14.23722656 -3.53132813 14.59945312 -4.19140625 14.97265625 C-5.53356317 15.73504776 -6.86389474 16.51833684 -8.1875 17.3125 C-10.48055145 18.18227814 -11.72838299 17.81129179 -14 17 C-8.375 13.125 -8.375 13.125 -5 12 C-3.7625 10.7625 -3.7625 10.7625 -2.5 9.5 C0 7 0 7 3 6 C2.505 5.566875 2.01 5.13375 1.5 4.6875 C0 3 0 3 0 0 Z " fill="#475A91" transform="translate(226,26)"/>
<path d="M0 0 C1.32 0.33 2.64 0.66 4 1 C3.67 1.66 3.34 2.32 3 3 C2.84308093 5.76931368 2.74156866 8.51734107 2.68359375 11.2890625 C2.66281265 12.10748627 2.64203156 12.92591003 2.62062073 13.76913452 C2.55515188 16.38766966 2.49625274 19.00630639 2.4375 21.625 C2.39431224 23.39844807 2.35069786 25.17188581 2.30664062 26.9453125 C2.19947324 31.29677046 2.09819831 35.64833077 2 40 C6.62 40 11.24 40 16 40 C16 40.33 16 40.66 16 41 C10.72 41 5.44 41 0 41 C0 27.47 0 13.94 0 0 Z " fill="#022C96" transform="translate(13,16)"/>
<path d="M0 0 C0.66 0.33 1.32 0.66 2 1 C1.34 3.31 0.68 5.62 0 8 C-1.65 8.33 -3.3 8.66 -5 9 C-5.33 9.99 -5.66 10.98 -6 12 C-6.66 12 -7.32 12 -8 12 C-8.33 11.34 -8.66 10.68 -9 10 C-9.33 11.32 -9.66 12.64 -10 14 C-10.66 14 -11.32 14 -12 14 C-12 13.34 -12 12.68 -12 12 C-12.66 11.67 -13.32 11.34 -14 11 C-12.60886005 9.72403068 -11.21185587 8.45445352 -9.8125 7.1875 C-9.03519531 6.47980469 -8.25789062 5.77210937 -7.45703125 5.04296875 C-5.05932147 3.04932453 -2.78284986 1.40779464 0 0 Z " fill="#053091" transform="translate(206,15)"/>
<path d="M0 0 C-1 3 -1 3 -3.58984375 4.53515625 C-10.33929876 7.61454588 -16.62226321 10.03406606 -24 11 C-22.66772786 7.00318357 -20.71996796 6.00322064 -17.2109375 3.875 C-14.68269844 2.87442483 -13.57691852 2.9302015 -11 3.6875 C-9.515 4.3371875 -9.515 4.3371875 -8 5 C-8 4.34 -8 3.68 -8 3 C-6.68 3 -5.36 3 -4 3 C-4 2.34 -4 1.68 -4 1 C-2 0 -2 0 0 0 Z " fill="#40589A" transform="translate(220,30)"/>
<path d="M0 0 C2.31 0.33 4.62 0.66 7 1 C7.6875 3.3125 7.6875 3.3125 8 6 C6.5625 7.8125 6.5625 7.8125 5 9 C5.66 9.66 6.32 10.32 7 11 C6.625 13.125 6.625 13.125 6 15 C5.67 13.68 5.34 12.36 5 11 C2.03 11 -0.94 11 -4 11 C-2.37660195 9.29115995 -0.70680947 7.62553283 1 6 C1.66 6 2.32 6 3 6 C2.505 5.566875 2.01 5.13375 1.5 4.6875 C0 3 0 3 0 0 Z " fill="#12328D" transform="translate(226,26)"/>
<path d="M0 0 C-0.61875 0.309375 -1.2375 0.61875 -1.875 0.9375 C-5.07684376 4.04517188 -5.31552808 7.70403806 -6 12 C-6.66 10.68 -7.32 9.36 -8 8 C-9.98 8.33 -11.96 8.66 -14 9 C-14.20086443 5.28400809 -14.1519437 4.22791555 -12 1 C-8.27143571 -0.57746951 -3.96800038 -0.06613334 0 0 Z " fill="#00309C" transform="translate(220,14)"/>
<path d="M0 0 C1.08667969 0.01804688 2.17335938 0.03609375 3.29296875 0.0546875 C4.54013672 0.08949219 4.54013672 0.08949219 5.8125 0.125 C6.1425 0.785 6.4725 1.445 6.8125 2.125 C2.8525 2.125 -1.1075 2.125 -5.1875 2.125 C-5.1875 6.745 -5.1875 11.365 -5.1875 16.125 C-5.5175 15.465 -5.8475 14.805 -6.1875 14.125 C-7.1775 13.795 -8.1675 13.465 -9.1875 13.125 C-8.8575 12.795 -8.5275 12.465 -8.1875 12.125 C-8.27713062 10.43358344 -8.43327676 8.74540398 -8.625 7.0625 C-8.72683594 6.14339844 -8.82867188 5.22429688 -8.93359375 4.27734375 C-9.01738281 3.56707031 -9.10117187 2.85679688 -9.1875 2.125 C-5.66070901 -0.22619399 -4.15870515 -0.08943452 0 0 Z " fill="#2B4FA0" transform="translate(35.1875,41.875)"/>
<path d="M0 0 C0.25 2.3125 0.25 2.3125 0 5 C-2 6.8125 -2 6.8125 -4 8 C-4.66 7.67 -5.32 7.34 -6 7 C-5.01 6.67 -4.02 6.34 -3 6 C-3.33 4.35 -3.66 2.7 -4 1 C-5.60875 1.928125 -5.60875 1.928125 -7.25 2.875 C-8.21099609 3.41833984 -8.21099609 3.41833984 -9.19140625 3.97265625 C-10.53356317 4.73504776 -11.86389474 5.51833684 -13.1875 6.3125 C-15.48055145 7.18227814 -16.72838299 6.81129179 -19 6 C-7.81903766 -1.72018828 -7.81903766 -1.72018828 0 0 Z " fill="#5468A5" transform="translate(231,37)"/>
<path d="M0 0 C0.66 0.33 1.32 0.66 2 1 C1.236875 1.45375 0.47375 1.9075 -0.3125 2.375 C-2.23632814 3.53824492 -4.12941224 4.7529415 -6 6 C-11.98616843 7.72248541 -17.80145667 8.22957568 -24 8 C-24 7.67 -24 7.34 -24 7 C-23.17592651 6.78851318 -23.17592651 6.78851318 -22.33520508 6.57275391 C-19.82674079 5.92692683 -17.31962371 5.27601097 -14.8125 4.625 C-13.94818359 4.40328125 -13.08386719 4.1815625 -12.19335938 3.953125 C-8.6985118 3.04259 -5.35736369 2.14668261 -2.01171875 0.7734375 C-1.34785156 0.51820312 -0.68398437 0.26296875 0 0 Z " fill="#092A87" transform="translate(220,37)"/>
<path d="M0 0 C0.33 0.66 0.66 1.32 1 2 C3.52733235 2.65555119 3.52733235 2.65555119 6 3 C6 4.98 6 6.96 6 9 C5.34 7.68 4.68 6.36 4 5 C2.02 5.33 0.04 5.66 -2 6 C-2 4.35 -2 2.7 -2 1 C-1.34 0.67 -0.68 0.34 0 0 Z " fill="#536CA0" transform="translate(208,17)"/>
<path d="M0 0 C0.99 0.33 1.98 0.66 3 1 C-2.54780652 5.77727784 -2.54780652 5.77727784 -6 6 C-8.25 5.0625 -8.25 5.0625 -10 4 C-9.16855469 3.69255859 -9.16855469 3.69255859 -8.3203125 3.37890625 C-7.59585938 3.10949219 -6.87140625 2.84007812 -6.125 2.5625 C-5.40570313 2.29566406 -4.68640625 2.02882812 -3.9453125 1.75390625 C-1.96351155 1.02083146 -1.96351155 1.02083146 0 0 Z " fill="#1A3084" transform="translate(225,46)"/>
<path d="M0 0 C1.32 0.33 2.64 0.66 4 1 C4.25 3.3125 4.25 3.3125 4 6 C2 7.8125 2 7.8125 0 9 C-0.66 8.67 -1.32 8.34 -2 8 C-1.01 7.67 -0.02 7.34 1 7 C0.67 4.69 0.34 2.38 0 0 Z " fill="#6577A7" transform="translate(227,36)"/>
<path d="M0 0 C-1 3 -1 3 -2.77734375 4.203125 C-3.49019531 4.54859375 -4.20304688 4.8940625 -4.9375 5.25 C-6.00291016 5.78367187 -6.00291016 5.78367187 -7.08984375 6.328125 C-8.03537109 6.66070312 -8.03537109 6.66070312 -9 7 C-9.66 6.67 -10.32 6.34 -11 6 C-10.01 5.67 -9.02 5.34 -8 5 C-8 4.34 -8 3.68 -8 3 C-6.68 3 -5.36 3 -4 3 C-4 2.34 -4 1.68 -4 1 C-2 0 -2 0 0 0 Z " fill="#5F70A7" transform="translate(220,30)"/>
<path d="M0 0 C2.31 0.33 4.62 0.66 7 1 C7 1.66 7 2.32 7 3 C6.01 3 5.02 3 4 3 C3.67 3.66 3.34 4.32 3 5 C2.01 4.34 1.02 3.68 0 3 C0 2.01 0 1.02 0 0 Z " fill="#495E98" transform="translate(226,26)"/>
<path d="M0 0 C1.32 0.66 2.64 1.32 4 2 C1.03 4.475 1.03 4.475 -2 7 C-2.125 4.625 -2.125 4.625 -2 2 C-1.34 1.34 -0.68 0.68 0 0 Z " fill="#3454A0" transform="translate(202,22)"/>
<path d="M0 0 C2.31 0 4.62 0 7 0 C4.64722731 2.72426311 2.37503669 3.8141763 -1 5 C-0.67 3.35 -0.34 1.7 0 0 Z " fill="#4C64A6" transform="translate(215,51)"/>
<path d="M0 0 C2.05825864 4.11651727 2.34008135 4.86808251 1 9 C0.01 9.495 0.01 9.495 -1 10 C-0.67 6.7 -0.34 3.4 0 0 Z " fill="#4E689F" transform="translate(85,38)"/>
<path d="M0 0 C3 1 3 1 3 1 Z " fill="#363126" transform="translate(284,14)"/>
<path d="M0 0 C2 1 2 1 2 1 Z " fill="#353432" transform="translate(281,14)"/>
</svg>
